<svg
  viewBox="0 0 12 18"
  fill="none"
  xmlns="http://www.w3.org/2000/svg"
>
  <path
    d="M3.07892 17.2564C4.61226 17.2564 5.8567 16.0098 5.8567 14.4738V11.6913H3.07892C1.54559 11.6913 0.301147 12.9379 0.301147 14.4738C0.301147 16.0098 1.54559 17.2564 3.07892 17.2564Z"
    fill="#0ACF83"
  />
  <path
    d="M0.301147 8.90901C0.301147 7.37305 1.54559 6.12646 3.07892 6.12646H5.8567V11.6916H3.07892C1.54559 11.6916 0.301147 10.445 0.301147 8.90901Z"
    fill="#A259FF"
  />
  <path
    d="M0.301025 3.34407C0.301025 1.8081 1.54547 0.561523 3.0788 0.561523H5.85658V6.12662H3.0788C1.54547 6.12662 0.301025 4.88004 0.301025 3.34407Z"
    fill="#F24E1E"
  />
  <path
    d="M5.85718 0.561523H8.63495C10.1683 0.561523 11.4127 1.8081 11.4127 3.34407C11.4127 4.88003 10.1683 6.12661 8.63495 6.12661H5.85718V0.561523Z"
    fill="#FF7262"
  />
  <path
    d="M11.4127 8.90901C11.4127 10.445 10.1683 11.6916 8.63495 11.6916C7.10162 11.6916 5.85718 10.445 5.85718 8.90901C5.85718 7.37305 7.10162 6.12646 8.63495 6.12646C10.1683 6.12646 11.4127 7.37305 11.4127 8.90901Z"
    fill="#1ABCFE"
  />
</svg>