<svg
  viewBox="0 0 17 22"
  fill="none"
  xmlns="http://www.w3.org/2000/svg"
>
  <path
    fillRule="evenodd"
    clipRule="evenodd"
    d="M12.6548 0.5C12.6548 0.5 10.7499 0.508901 9.37979 2.32747C8.16141 3.94464 8.47161 5.3278 8.47161 5.3278C8.47161 5.3278 10.1236 5.61559 11.5769 3.85687C12.9381 2.20979 12.6548 0.5 12.6548 0.5ZM9.73865 6.19398C9.29026 6.376 8.92182 6.52555 8.64585 6.52555C8.30184 6.52555 7.88681 6.36455 7.40452 6.17745C6.73565 5.91797 5.93739 5.6083 5.01974 5.60828C2.59022 5.60828 0 7.79898 0 11.9751C0 16.2196 3.06015 21.5 5.48241 21.5C5.85921 21.5 6.32593 21.3297 6.84337 21.1408C7.48701 20.9059 8.20912 20.6423 8.93429 20.6423C9.58452 20.6423 10.1484 20.8545 10.7049 21.0638C11.2471 21.2678 11.7823 21.4692 12.3835 21.4692C15.0361 21.4692 17 15.9026 17 15.9026C17 15.9026 14.1906 14.8073 14.1906 11.6288C14.1906 8.81133 16.4459 7.65016 16.4459 7.65016C16.4459 7.65016 15.2928 5.54981 12.3617 5.54981C11.3256 5.54981 10.4355 5.91109 9.73865 6.19398Z"
    fill="#e5e7eb"
  />
</svg>