<svg
  viewBox="0 0 21 22"
  fill="none"
  xmlns="http://www.w3.org/2000/svg"
>
  <path
    d="M20.989 11.2057C20.989 10.3044 20.9175 9.64668 20.7629 8.9646H10.7092V13.0328H16.6105C16.4916 14.0437 15.8491 15.5663 14.4213 16.5894L14.4013 16.7256L17.5801 19.2466L17.8003 19.2691C19.8229 17.3568 20.989 14.5431 20.989 11.2057Z"
    fill="#4285F4"
  />
  <path
    d="M10.7092 21.9245C13.6004 21.9245 16.0275 20.95 17.8003 19.2692L14.4213 16.5895C13.5171 17.2351 12.3035 17.6857 10.7092 17.6857C7.87755 17.6857 5.4742 15.7735 4.61747 13.1304L4.49189 13.1413L1.18654 15.76L1.14331 15.8831C2.90418 19.464 6.52114 21.9245 10.7092 21.9245Z"
    fill="#34A853"
  />
  <path
    d="M4.61755 13.1303C4.39149 12.4482 4.26066 11.7174 4.26066 10.9622C4.26066 10.207 4.39149 9.47622 4.60565 8.79413L4.59966 8.64887L1.25289 5.98804L1.14339 6.04136C0.41765 7.52737 0.0012207 9.19609 0.0012207 10.9622C0.0012207 12.7284 0.41765 14.397 1.14339 15.883L4.61755 13.1303Z"
    fill="#FBBC05"
  />
  <path
    d="M10.7092 4.23869C12.7199 4.23869 14.0763 5.12785 14.8496 5.87089L17.8717 2.85018C16.0157 1.08405 13.6004 0 10.7092 0C6.52113 0 2.90418 2.46039 1.14331 6.04135L4.60557 8.79412C5.4742 6.15102 7.87754 4.23869 10.7092 4.23869Z"
    fill="#EB4335"
  />
</svg>