<svg
  viewBox="0 0 16 16"
  fill="none"
  xmlns="http://www.w3.org/2000/svg"
>
  <path
    d="M13.2726 15.2265H3.03646C1.64757 15.2265 0.515625 14.1118 0.515625 12.744V3.07392C0.515625 1.70616 1.64757 0.591431 3.03646 0.591431H13.2656C14.6615 0.591431 15.7865 1.70616 15.7865 3.07392V12.7372C15.7934 14.1118 14.6615 15.2265 13.2726 15.2265Z"
    fill="#2E001F"
  />
  <path
    fillRule="evenodd"
    clipRule="evenodd"
    d="M6.4111 7.39617L8.35555 11.0755C8.39027 11.1302 8.36943 11.1849 8.31388 11.1849H7.10554C7.02916 11.1849 6.99443 11.1644 6.95971 11.096C6.84486 10.8627 6.72954 10.6294 6.61364 10.395L6.61349 10.3946C6.28094 9.72192 5.94359 9.03947 5.5986 8.31941H5.58471C5.16804 9.23582 4.70971 10.2001 4.26526 11.1028C4.23054 11.1575 4.19582 11.178 4.14026 11.178H2.99443C2.92499 11.178 2.91804 11.1233 2.95276 11.0823L4.85554 7.51243L3.01526 3.90153C2.9736 3.84682 3.01526 3.80579 3.05693 3.80579H4.25138C4.32082 3.80579 4.3486 3.81947 4.37638 3.88102C4.81388 4.78374 5.25832 5.71382 5.67499 6.62339H5.68888C6.09165 5.72066 6.5361 4.78374 6.96666 3.88785L6.96793 3.88585C7.0019 3.83231 7.02306 3.79895 7.09166 3.79895H8.20971C8.26527 3.79895 8.2861 3.83998 8.25138 3.89469L6.4111 7.39617ZM8.69629 8.51069C8.69629 6.91725 9.77268 5.67258 11.481 5.67258C11.6268 5.67258 11.7032 5.67258 11.8421 5.68626V3.87397C11.8421 3.83293 11.8768 3.80558 11.9116 3.80558H13.0088C13.0643 3.80558 13.0782 3.8261 13.0782 3.86029V10.1383C13.0782 10.323 13.0782 10.5555 13.113 10.8085C13.113 10.8496 13.0991 10.8632 13.0574 10.8838C12.4741 11.1573 11.863 11.2804 11.2796 11.2804C9.77268 11.2873 8.69629 10.3709 8.69629 8.51069ZM11.4393 6.69151C11.6059 6.69151 11.7448 6.71886 11.842 6.75989V10.1451C11.7101 10.1998 11.5295 10.2203 11.3629 10.2203C10.5781 10.2203 9.95315 9.71427 9.95315 8.45592C9.95315 7.35487 10.5643 6.69151 11.4393 6.69151Z"
    fill="#FFD9F2"
  />
</svg>