<svg
  viewBox="0 0 13 18"
  fill="none"
  xmlns="http://www.w3.org/2000/svg"
>
  <path
    fillRule="evenodd"
    clipRule="evenodd"
    d="M4.12203 1.09285H4.79923V2.63598H5.5665V1.09285H6.24703V0.321289H4.12203V1.09285ZM2.30926 0.321317H1.54199V2.63602H2.31593V1.86445H3.01648V2.63602H3.78375V0.321317H3.01648V1.08618H2.30926V0.321317ZM6.58222 0.321289H7.38618L7.8799 1.13646L8.37362 0.321289H9.17759V2.63598H8.41032V1.4887L7.87323 2.32065L7.33614 1.4887V2.63598H6.58222V0.321289ZM10.3271 0.321289H9.5598V2.63598H11.4146V1.87113H10.3271V0.321289Z"
    fill="black"
  />
  <path
    d="M1.51371 16.1212L0.412842 3.69568H12.5157L11.4148 16.1145L6.45425 17.4966"
    fill="#E44D26"
  />
  <path
    d="M6.46338 16.4406V4.71619H11.4106L10.4665 15.3168"
    fill="#F16529"
  />
  <path
    fillRule="evenodd"
    clipRule="evenodd"
    d="M6.4651 6.23572H2.66211L3.07577 10.8383H6.4651V9.31863H4.46353L4.32342 7.75872H6.4651V6.23572ZM4.66104 11.6036H3.13985L3.35335 13.9955L6.46245 14.8677V13.2776L4.76779 12.8214L4.66104 11.6036Z"
    fill="#EBEBEB"
  />
  <path
    fillRule="evenodd"
    clipRule="evenodd"
    d="M6.45831 6.23572H10.2546L10.1145 7.75872H6.45831V6.23572ZM6.45654 9.31902H9.97597L9.55897 13.9954L6.45654 14.8609V13.2775L8.14787 12.8213L8.32467 10.842H6.45654V9.31902Z"
    fill="white"
  />
</svg>